<svg xmlns="http://www.w3.org/2000/svg" viewBox="0 0 512 512">
  <!-- Background -->
  <rect width="512" height="512" rx="90" fill="#06060f"/>
  <!-- Board -->
  <rect x="56" y="136" width="400" height="320" rx="28" fill="#0d2580"/>
  <!-- Holes — row 1 -->
  <circle cx="114" cy="196" r="28" fill="#04080f" opacity=".9"/>
  <circle cx="170" cy="196" r="28" fill="#04080f" opacity=".9"/>
  <circle cx="226" cy="196" r="28" fill="#04080f" opacity=".9"/>
  <circle cx="282" cy="196" r="28" fill="#04080f" opacity=".9"/>
  <circle cx="338" cy="196" r="28" fill="#04080f" opacity=".9"/>
  <circle cx="394" cy="196" r="28" fill="#04080f" opacity=".9"/>
  <!-- Holes — row 2 (with pieces) -->
  <circle cx="114" cy="262" r="28" fill="#04080f" opacity=".9"/>
  <circle cx="170" cy="262" r="28" fill="#ff2d55"/>
  <circle cx="226" cy="262" r="28" fill="#04080f" opacity=".9"/>
  <circle cx="282" cy="262" r="28" fill="#ffd60a"/>
  <circle cx="338" cy="262" r="28" fill="#04080f" opacity=".9"/>
  <circle cx="394" cy="262" r="28" fill="#04080f" opacity=".9"/>
  <!-- Holes — row 3 -->
  <circle cx="114" cy="328" r="28" fill="#ff2d55"/>
  <circle cx="170" cy="328" r="28" fill="#ffd60a"/>
  <circle cx="226" cy="328" r="28" fill="#ff2d55"/>
  <circle cx="282" cy="328" r="28" fill="#ffd60a"/>
  <circle cx="338" cy="328" r="28" fill="#04080f" opacity=".9"/>
  <circle cx="394" cy="328" r="28" fill="#04080f" opacity=".9"/>
  <!-- Holes — row 4 -->
  <circle cx="114" cy="394" r="28" fill="#ffd60a"/>
  <circle cx="170" cy="394" r="28" fill="#ff2d55"/>
  <circle cx="226" cy="394" r="28" fill="#ffd60a"/>
  <circle cx="282" cy="394" r="28" fill="#ff2d55"/>
  <circle cx="338" cy="394" r="28" fill="#ffd60a"/>
  <circle cx="394" cy="394" r="28" fill="#04080f" opacity=".9"/>
  <!-- Title text -->
  <text x="256" y="110" font-family="Arial Black, sans-serif" font-size="52" font-weight="900"
        fill="#4cc9ff" text-anchor="middle" letter-spacing="2">C4</text>
</svg>
